<?xml version="1.0" encoding="iso-8859-1"?>
<!-- Generator: Adobe Illustrator 16.0.0, SVG Export Plug-In . SVG Version: 6.00 Build 0)  -->
<!DOCTYPE svg PUBLIC "-//W3C//DTD SVG 1.1//EN" "http://www.w3.org/Graphics/SVG/1.1/DTD/svg11.dtd">
<svg xmlns="http://www.w3.org/2000/svg" xmlns:xlink="http://www.w3.org/1999/xlink" version="1.1" id="Capa_1" x="0px" y="0px" width="512px" height="512px" viewBox="0 0 315.547 315.547" style="enable-background:new 0 0 315.547 315.547;" xml:space="preserve">
<g>
	<path d="M314.194,135.279H53.816c-2.534-17.252-11.939-57.808-44.363-57.808c-4.469,0-8.1,3.623-8.1,8.101   c0,4.477,3.631,8.1,8.1,8.1c2.157,0,4.1,0.488,5.956,1.174c10.948,4.039,16.881,18.731,19.966,31.065   c2.359,9.424,3.087,17.345,3.138,17.922c0.129,39.767,17.188,75.605,44.328,100.707c-5.25,7.361-8.377,16.332-8.377,26.04   c0,24.796,20.171,44.967,44.967,44.967c21.352,0,39.242-14.972,43.804-34.958c4.316,0.411,8.683,0.633,13.107,0.633   c4.424,0,8.791-0.231,13.109-0.633c4.572,19.986,22.454,34.958,43.807,34.958c24.79,0,44.961-20.171,44.961-44.967   c0-9.703-3.121-18.679-8.374-26.029c27.243-25.197,44.35-61.215,44.35-101.166V135.279z M258.201,233.191   c-7.146-4.777-15.72-7.572-24.938-7.572c-22.686,0-41.443,16.896-44.486,38.754c-4.087,0.417-8.231,0.648-12.43,0.648   c-4.197,0-8.337-0.231-12.424-0.648c-3.043-21.858-21.801-38.754-44.487-38.754c-9.223,0-17.798,2.795-24.943,7.572   c-22.539-20.556-37.389-49.412-39.522-81.712h242.75C295.59,183.79,280.74,212.636,258.201,233.191z M262.024,270.58   c0,15.862-12.904,28.767-28.762,28.767c-13.257,0-24.331-9.06-27.653-21.278c-0.654-2.399-1.113-4.878-1.113-7.488   c0-0.189,0.053-0.369,0.063-0.564c0.053-3.105,0.675-6.049,1.646-8.844c3.924-11.232,14.507-19.354,27.058-19.354   c3.939,0,7.689,0.802,11.111,2.236c2.774,1.171,5.253,2.853,7.499,4.788c2.062,1.762,3.924,3.744,5.41,6.012   C260.263,259.379,262.024,264.769,262.024,270.58z M148.203,270.58c0,2.61-0.459,5.089-1.113,7.488   c-3.322,12.219-14.396,21.278-27.654,21.278c-15.865,0-28.767-12.904-28.767-28.767c0-5.812,1.761-11.201,4.73-15.726   c1.498-2.268,3.354-4.25,5.413-6.012c2.252-1.936,4.73-3.617,7.504-4.788c3.425-1.435,7.177-2.236,11.114-2.236   c12.551,0,23.14,8.132,27.061,19.364c0.971,2.784,1.593,5.732,1.65,8.833C148.147,270.211,148.203,270.391,148.203,270.58z" fill="#ffffff"/>
	<path d="M314.194,110.969C314.194,49.776,264.413,0,203.221,0h-8.101v119.069h119.074V110.969z M211.32,102.869V16.545   c45.811,3.892,82.439,40.516,86.326,86.324H211.32z" fill="#ffffff"/>
</g>
<g>
</g>
<g>
</g>
<g>
</g>
<g>
</g>
<g>
</g>
<g>
</g>
<g>
</g>
<g>
</g>
<g>
</g>
<g>
</g>
<g>
</g>
<g>
</g>
<g>
</g>
<g>
</g>
<g>
</g>
</svg>
